<?xml version="1.0" encoding="UTF-8"?>
<svg version="1.1" xmlns="http://www.w3.org/2000/svg" width="200" height="200">
<path d="M0 0 C66 0 132 0 200 0 C200 66 200 132 200 200 C134 200 68 200 0 200 C0 134 0 68 0 0 Z " fill="#140F4F" transform="translate(0,0)"/>
<path d="M0 0 C14.86953016 14.78131979 22.32921585 31.46831129 22.5 52.4375 C22.29765659 73.53413524 15.24375877 91.43737468 1 107 C-2.71268094 105.45872649 -4.98115698 103.19156766 -7.75 100.3125 C-10.62143033 97.33454887 -13.5367731 94.50759163 -16.67675781 91.81884766 C-20.96501417 88.08243788 -24.99472583 84.13330664 -29 80.09765625 C-29.7211499 79.3750914 -30.4422998 78.65252655 -31.18530273 77.9080658 C-33.45925415 75.62857396 -35.72967954 73.3456076 -38 71.0625 C-39.55315235 69.50432494 -41.10653567 67.94638007 -42.66015625 66.38867188 C-46.44277586 62.59510241 -50.2225169 58.79868385 -54 55 C-48.68985746 48.55309361 -42.82873116 42.70050563 -36.9140625 36.81640625 C-35.84624655 35.75045891 -34.77865378 34.68428795 -33.71127319 33.61790466 C-30.92207682 30.83249861 -28.129889 28.05011071 -25.33703613 25.26837158 C-22.47936425 22.42098936 -19.62457498 19.57072014 -16.76953125 16.72070312 C-11.18248158 11.14432919 -5.59226366 5.57114506 0 0 Z " fill="#FDFCFD" transform="translate(112,46)"/>
<path d="M0 0 C0.66 0.33 1.32 0.66 2 1 C0.60667426 4.36720387 -0.9789286 5.9859524 -4 8 C-3.67 6.35 -3.34 4.7 -3 3 C-2.01 2.67 -1.02 2.34 0 2 C0 1.34 0 0.68 0 0 Z " fill="#272353" transform="translate(63,91)"/>
<path d="M0 0 C0.33 0.66 0.66 1.32 1 2 C0.00390625 3.9453125 0.00390625 3.9453125 -1.4375 6.125 C-1.91058594 6.84945312 -2.38367188 7.57390625 -2.87109375 8.3203125 C-3.24363281 8.87460938 -3.61617188 9.42890625 -4 10 C-4.99 9.67 -5.98 9.34 -7 9 C-4.69 6.03 -2.38 3.06 0 0 Z " fill="#302C57" transform="translate(123,139)"/>
</svg>
