<?xml version="1.0" encoding="UTF-8"?>
<svg version="1.1" xmlns="http://www.w3.org/2000/svg" width="200" height="200">
<path d="M0 0 C66 0 132 0 200 0 C200 66 200 132 200 200 C134 200 68 200 0 200 C0 134 0 68 0 0 Z " fill="#E61725" transform="translate(0,0)"/>
<path d="M0 0 C1.55074219 -0.02416992 1.55074219 -0.02416992 3.1328125 -0.04882812 C16.43898415 -0.05720733 27.1623399 4.20018097 36.8125 13.4375 C39.35887855 15.98900205 40.66821297 17.72614161 41.25 21.3125 C41.91 21.3125 42.57 21.3125 43.25 21.3125 C43.89894237 23.37402389 44.5440264 25.43676258 45.1875 27.5 C45.72697266 29.22283203 45.72697266 29.22283203 46.27734375 30.98046875 C50.26106764 44.62752289 49.3300178 59.40099477 42.6171875 71.97265625 C40.67830967 75.29090717 38.66150841 78.31440846 36.25 81.3125 C35.59 81.3125 34.93 81.3125 34.25 81.3125 C34.25 81.9725 34.25 82.6325 34.25 83.3125 C21.60017617 93.04455425 9.22400078 96.88541601 -6.75 95.3125 C-17.53466096 93.80976043 -28.26933965 90.5349871 -35.68359375 82.1171875 C-36.70770668 80.74679178 -37.69596357 79.34808122 -38.62890625 77.9140625 C-39.67228914 76.15290412 -39.67228914 76.15290412 -41.75 75.3125 C-42.6976398 72.7529869 -43.53329303 70.23545896 -44.3125 67.625 C-44.53357422 66.91666016 -44.75464844 66.20832031 -44.98242188 65.47851562 C-49.35876404 51.15954716 -49.30366696 35.9594263 -42.2421875 22.421875 C-36.10150501 13.11088667 -28.04058164 6.5334381 -17.75 2.3125 C-16.47962891 1.76142578 -16.47962891 1.76142578 -15.18359375 1.19921875 C-10.12393223 -0.10742876 -5.20423445 -0.01598352 0 0 Z " fill="#82182C" transform="translate(99.75,52.6875)"/>
<path d="M0 0 C6.57198039 3.3615302 9.32565012 9.60880521 11.7890625 16.29296875 C14.26645689 24.09691343 14.12166801 31.98686373 14.1015625 40.10546875 C14.11767578 41.39517578 14.13378906 42.68488281 14.15039062 44.01367188 C14.15579913 54.70628312 13.46679173 67.01852482 5.7890625 75.29296875 C1.59540771 78.46070799 -2.92518706 80.04304112 -8.1953125 79.7421875 C-13.40846524 78.58034144 -17.14906474 75.55573635 -20.5234375 71.54296875 C-29.4397813 54.37075107 -28.83273597 29.50759579 -23.2109375 11.29296875 C-18.92843584 1.17897547 -10.74915857 -3.43745177 0 0 Z " fill="#E61725" transform="translate(106.2109375,60.70703125)"/>
<path d="M0 0 C1.00901367 -0.00612305 2.01802734 -0.01224609 3.05761719 -0.01855469 C11.38145978 0.12031217 19.19730288 1.12286095 25.8125 6.5 C22.00531452 5.77246734 18.25764431 4.88723428 14.5 3.9375 C13.43136719 3.66808594 12.36273438 3.39867187 11.26171875 3.12109375 C10.45347656 2.91613281 9.64523438 2.71117187 8.8125 2.5 C8.4825 3.49 8.1525 4.48 7.8125 5.5 C5.8125 7.5 5.8125 7.5 3.8125 8.5 C2.22824361 8.4686568 0.64458228 8.40119249 -0.9375 8.3125 C-5.86109006 8.26993294 -8.40752534 9.17002233 -12.1875 12.5 C-14.51027416 15.1091387 -14.51027416 15.1091387 -16.1875 17.5 C-15.70481592 13.15584331 -14.53276822 11.28772351 -11.1875 8.5 C-6.6875 5.5 -6.6875 5.5 -4.1875 5.5 C-4.1875 4.84 -4.1875 4.18 -4.1875 3.5 C-11.17823902 2.83067392 -15.77773126 3.77796888 -21.86328125 7.30859375 C-24.31713579 8.56645196 -26.47385458 9.08214664 -29.1875 9.5 C-21.26486872 0.83693589 -11.10270964 0.03742869 0 0 Z " fill="#891529" transform="translate(100.1875,52.5)"/>
<path d="M0 0 C5.9144513 5.9144513 5.38619717 17.32215081 5.41015625 25.1328125 C5.39855469 26.40898438 5.38695313 27.68515625 5.375 29 C5.38660156 30.27617188 5.39820312 31.55234375 5.41015625 32.8671875 C5.37646446 43.85071177 4.39716577 55.29745203 -3 64 C-5.625 66.0625 -5.625 66.0625 -8 67 C-8.99 66.67 -9.98 66.34 -11 66 C-7.375 63 -7.375 63 -4 63 C-3.731875 62.319375 -3.46375 61.63875 -3.1875 60.9375 C-2 58 -2 58 -0.375 54.875 C1.72766849 50.10965583 1.2491182 45.1023098 1 40 C1.99 40 2.98 40 4 40 C3.86155153 36.20802551 3.71299256 32.4165141 3.5625 28.625 C3.52318359 27.54476562 3.48386719 26.46453125 3.44335938 25.3515625 C3.40146484 24.3203125 3.35957031 23.2890625 3.31640625 22.2265625 C3.27974854 21.27346191 3.24309082 20.32036133 3.20532227 19.33837891 C3.14236535 16.97867651 3.14236535 16.97867651 2 15 C1.79669019 13.5881263 1.63523919 12.17001147 1.5 10.75 C1.13222395 7.13645434 0.64202592 3.57700157 0 0 Z " fill="#D21D2E" transform="translate(115,72)"/>
<path d="M0 0 C1.00901367 -0.00612305 2.01802734 -0.01224609 3.05761719 -0.01855469 C11.38145978 0.12031217 19.19730288 1.12286095 25.8125 6.5 C23.1376685 5.99168331 20.50558532 5.42143961 17.8671875 4.74609375 C10.6622494 2.91387976 4.22494806 2.07920601 -3.1875 2.5 C-4.10402344 2.51933594 -5.02054688 2.53867187 -5.96484375 2.55859375 C-12.13440524 2.84414148 -16.54428908 4.26377165 -21.8984375 7.34375 C-24.33460622 8.57430621 -26.50146025 9.08238251 -29.1875 9.5 C-21.26486872 0.83693589 -11.10270964 0.03742869 0 0 Z " fill="#961324" transform="translate(100.1875,52.5)"/>
<path d="M0 0 C0.33 0 0.66 0 1 0 C1.02696365 1.79158489 1.04637917 3.58328473 1.0625 5.375 C1.07410156 6.37273437 1.08570312 7.37046875 1.09765625 8.3984375 C1 11 1 11 0 13 C-0.15266612 14.73868744 -0.24932596 16.48247501 -0.31640625 18.2265625 C-0.35830078 19.2578125 -0.40019531 20.2890625 -0.44335938 21.3515625 C-0.48267578 22.43179688 -0.52199219 23.51203125 -0.5625 24.625 C-0.60568359 25.71296875 -0.64886719 26.8009375 -0.69335938 27.921875 C-0.7996453 30.6144517 -0.90168057 33.30712253 -1 36 C-0.34 36 0.32 36 1 36 C1.08636719 36.83402344 1.17273438 37.66804688 1.26171875 38.52734375 C2.1123487 45.34018726 3.27737499 50.52818344 7.07421875 56.29296875 C7.37972656 56.85628906 7.68523437 57.41960937 8 58 C7.67 58.66 7.34 59.32 7 60 C-1.33236353 49.41564633 -2.1800443 38.51195056 -2.1875 25.375 C-2.19974609 24.26253906 -2.21199219 23.15007812 -2.22460938 22.00390625 C-2.23775358 14.4766602 -1.47576956 7.37968392 0 0 Z " fill="#D11D2E" transform="translate(82,76)"/>
<path d="M0 0 C-2.65767637 1.77178425 -4.66019788 2.64746624 -7.625 3.6875 C-15.69406925 6.85622938 -21.8583645 12.09551804 -27 19 C-27.70125 19.9075 -28.4025 20.815 -29.125 21.75 C-31.56333481 25.976447 -32.77385653 30.29978335 -34 35 C-34.33 35 -34.66 35 -35 35 C-35.95217032 27.85872261 -32.93870506 22.83099596 -29 17 C-27.22670254 14.97800838 -25.41282589 13.14093993 -23.41796875 11.33984375 C-21.87452808 10.03486037 -21.87452808 10.03486037 -21 8 C-19.28501048 6.9410803 -17.52738569 5.95047363 -15.75 5 C-14.79609375 4.484375 -13.8421875 3.96875 -12.859375 3.4375 C-8.38827268 1.18973272 -5.05460342 -0.28883448 0 0 Z " fill="#D01C2E" transform="translate(88,53)"/>
<path d="M0 0 C9.18330309 0.85299456 9.18330309 0.85299456 13.125 1.5625 C17.29767374 2.19747209 22.14714467 2.92642767 26 1 C27.70702735 0.93003986 29.41668003 0.91559846 31.125 0.9375 C32.03507812 0.94652344 32.94515625 0.95554688 33.8828125 0.96484375 C34.93082031 0.98224609 34.93082031 0.98224609 36 1 C24.90571842 6.73842151 11.55685558 4.32457489 0 1 C0 0.67 0 0.34 0 0 Z " fill="#9B1425" transform="translate(80,144)"/>
<path d="M0 0 C0.66 0.66 1.32 1.32 2 2 C1.33613281 1.96519531 0.67226562 1.93039063 -0.01171875 1.89453125 C-5.28058568 1.73300394 -8.62981867 1.722364 -13 5 C-13.66 5 -14.32 5 -15 5 C-15.0825 5.515625 -15.165 6.03125 -15.25 6.5625 C-16.32140225 10.04455732 -18.13523605 12.87200885 -20 16 C-20.86616491 13.589802 -21.1663451 12.42372482 -20.21484375 10 C-15.0535786 1.91875304 -9.77966444 -1.51268191 0 0 Z " fill="#CE1C2C" transform="translate(104,60)"/>
<path d="M0 0 C0.66 0 1.32 0 2 0 C3.61109365 4.25351021 4.24026702 7.73303096 4.1953125 12.2734375 C4.18564453 14.00400391 4.18564453 14.00400391 4.17578125 15.76953125 C4.15902344 16.95933594 4.14226562 18.14914063 4.125 19.375 C4.11597656 20.58800781 4.10695312 21.80101563 4.09765625 23.05078125 C4.07416588 26.03405773 4.04131682 29.01692594 4 32 C3.34 32 2.68 32 2 32 C2.03480469 30.04320312 2.03480469 30.04320312 2.0703125 28.046875 C2.18763923 18.4664139 2.13679233 9.38662345 0 0 Z " fill="#CE1C2F" transform="translate(145,80)"/>
<path d="M0 0 C1 3 1 3 0.1796875 5.3046875 C-2.37561611 10.33878862 -4.69828036 14.31281174 -9 18 C-9 16.68 -9 15.36 -9 14 C-8.443125 13.46375 -7.88625 12.9275 -7.3125 12.375 C-3.84659343 8.81542028 -2.08173671 4.4706149 0 0 Z " fill="#941225" transform="translate(145,114)"/>
<path d="M0 0 C1 2 1 2 0.29296875 4.3125 C-0.25423828 5.6428125 -0.25423828 5.6428125 -0.8125 7 C-1.16957031 7.886875 -1.52664062 8.77375 -1.89453125 9.6875 C-3 12 -3 12 -5 14 C-4.43981302 9.40646673 -3.42668586 3.42668586 0 0 Z " fill="#971226" transform="translate(59,74)"/>
<path d="M0 0 C0.66 0.33 1.32 0.66 2 1 C-1.3618226 5.25171681 -4.74828319 8.6381774 -9 12 C-7.54718935 6.67302761 -3.91888622 3.63597198 0 0 Z " fill="#961325" transform="translate(69,62)"/>
<path d="M0 0 C3.68954546 1.22984849 3.35620309 1.71240619 5 5 C6.62746694 6.70496537 8.28891311 8.37897032 10 10 C6.17377257 8.4411666 3.74852621 6.04566418 1 3 C0.67 2.01 0.34 1.02 0 0 Z " fill="#9B1327" transform="translate(62,130)"/>
<path d="M0 0 C1 2 1 2 0.3125 4.4375 C-1.10829685 7.21143671 -2.39746148 8.35172561 -5 10 C-5.66 9.67 -6.32 9.34 -7 9 C-6.01 8.67 -5.02 8.34 -4 8 C-2.89363605 5.60931266 -2.89363605 5.60931266 -2 3 C-1.34 2.01 -0.68 1.02 0 0 Z " fill="#9A1425" transform="translate(116,128)"/>
<path d="M0 0 C-1.05041579 2.86477034 -1.70124563 3.83913226 -4.4375 5.3125 C-7 6 -7 6 -10 5 C-8.71186658 4.16121545 -7.41936744 3.32913217 -6.125 2.5 C-5.40570313 2.0359375 -4.68640625 1.571875 -3.9453125 1.09375 C-2 0 -2 0 0 0 Z " fill="#CE1C2C" transform="translate(130,139)"/>
<path d="M0 0 C0.7425 0.0825 1.485 0.165 2.25 0.25 C0.27579865 2.77259061 -0.71745642 3.2429808 -3.9375 3.9375 C-5.3296875 4.0921875 -5.3296875 4.0921875 -6.75 4.25 C-3.42692308 0.31153846 -3.42692308 0.31153846 0 0 Z " fill="#991326" transform="translate(122.75,140.75)"/>
</svg>
