<?xml version="1.0" encoding="UTF-8"?>
<svg version="1.1" xmlns="http://www.w3.org/2000/svg" width="200" height="200">
<path d="M0 0 C66 0 132 0 200 0 C200 66 200 132 200 200 C134 200 68 200 0 200 C0 134 0 68 0 0 Z " fill="#704939" transform="translate(0,0)"/>
<path d="M0 0 C66 0 132 0 200 0 C200 66 200 132 200 200 C134 200 68 200 0 200 C0 134 0 68 0 0 Z M25 16 C20.12751275 31.83558357 18.55818621 45.73287677 18.5625 62 C18.5614325 62.858284 18.56036499 63.71656799 18.55926514 64.6008606 C18.5837967 78.28740226 19.65849226 90.92935186 24 104 C24.22461914 104.71510742 24.44923828 105.43021484 24.68066406 106.16699219 C35.62759702 140.5374935 59.91634936 168.27577193 91 186 C91.68900391 186.39993164 92.37800781 186.79986328 93.08789062 187.21191406 C97.15457509 189.45548244 97.15457509 189.45548244 101.69140625 189.90234375 C116.75958661 184.01275041 129.49453393 173.09455657 141 162 C141.77859375 161.28457031 142.5571875 160.56914062 143.359375 159.83203125 C163.59331148 140.71024377 175.05362254 114.74345145 181 88 C181.26478149 86.92951416 181.26478149 86.92951416 181.53491211 85.83740234 C182.17331583 81.94263698 182.18256326 78.11674141 182.203125 74.17578125 C182.20882507 73.31550827 182.21452515 72.45523529 182.22039795 71.56889343 C182.22983154 69.74410217 182.2363754 67.91929399 182.24023438 66.09448242 C182.24980975 63.36669866 182.28079233 60.63971229 182.3125 57.91210938 C182.36585264 49.2198771 182.08592033 40.75728701 180.671875 32.16796875 C180.55515442 31.45876785 180.43843384 30.74956696 180.31817627 30.01887512 C179.38604985 24.96179936 177.85675349 20.95134264 176 16 C126.17 16 76.34 16 25 16 Z " fill="#6E4838" transform="translate(0,0)"/>
<path d="M0 0 C1.84706543 -0.00956978 1.84706543 -0.00956978 3.73144531 -0.01933289 C5.07617148 -0.02086138 6.42089817 -0.02197544 7.765625 -0.02270508 C9.14420608 -0.02591839 10.52278682 -0.02928252 11.90136719 -0.03279114 C14.78972159 -0.03877709 17.67804608 -0.04063152 20.56640625 -0.04003906 C24.26877599 -0.03993733 27.97095445 -0.05360355 31.67327881 -0.07081127 C34.51970299 -0.0819236 37.36608076 -0.08395853 40.21252441 -0.08342934 C41.57768413 -0.08461007 42.94284502 -0.08903711 44.3079834 -0.0967617 C46.21571385 -0.106548 48.1235004 -0.10242282 50.03125 -0.09765625 C51.65981934 -0.09979378 51.65981934 -0.09979378 53.32128906 -0.10197449 C56.015625 0.14526367 56.015625 0.14526367 59.015625 2.14526367 C59.37638855 4.89138794 59.37638855 4.89138794 59.35620117 8.4309082 C59.35656278 9.08535353 59.35692438 9.73979885 59.35729694 10.41407585 C59.35505499 12.53571887 59.33219833 14.65657435 59.30859375 16.77807617 C59.30557251 18.07350342 59.30255127 19.36893066 59.29943848 20.70361328 C59.28370014 25.55924404 59.24181653 30.41476156 59.203125 35.27026367 C59.14125 46.11901367 59.079375 56.96776367 59.015625 68.14526367 C80.795625 68.14526367 102.575625 68.14526367 125.015625 68.14526367 C123.890625 76.02026367 123.890625 76.02026367 121.953125 80.08276367 C121.59089844 80.85491211 121.22867188 81.62706055 120.85546875 82.42260742 C120.57832031 82.99108398 120.30117187 83.55956055 120.015625 84.14526367 C119.355625 84.14526367 118.695625 84.14526367 118.015625 84.14526367 C117.90992188 84.84651367 117.80421875 85.54776367 117.6953125 86.27026367 C116.92254819 89.53896787 115.67219901 92.15831336 114.140625 95.14526367 C113.62757813 96.15588867 113.11453125 97.16651367 112.5859375 98.20776367 C109.60794249 103.77854041 109.60794249 103.77854041 108.015625 106.14526367 C107.355625 106.14526367 106.695625 106.14526367 106.015625 106.14526367 C106.0775 107.03213867 106.139375 107.91901367 106.203125 108.83276367 C106.015625 112.14526367 106.015625 112.14526367 104.453125 114.58276367 C102.6213157 117.14991633 102.6213157 117.14991633 103.86328125 120.32104492 C104.03281869 124.57686946 103.81947689 124.9464127 101.140625 127.94213867 C99.78910186 129.28391565 98.41227599 130.60052576 97.015625 131.89526367 C96.28883545 132.59192139 95.5620459 133.2885791 94.81323242 134.00634766 C84.85736091 143.36497469 72.98587852 153.30399913 60.015625 158.14526367 C56.12363345 157.81581245 53.97537726 156.66653412 51.015625 154.14526367 C51.675625 152.82526367 52.335625 151.50526367 53.015625 150.14526367 C54.335625 150.14526367 55.655625 150.14526367 57.015625 150.14526367 C57.015625 123.41526367 57.015625 96.68526367 57.015625 69.14526367 C35.565625 69.14526367 14.115625 69.14526367 -7.984375 69.14526367 C-12.22387734 58.54650783 -12.31795389 47.66980766 -12.234375 36.39526367 C-12.2322702 35.69237213 -12.23016541 34.98948059 -12.22799683 34.26528931 C-12.1448201 10.62659898 -12.1448201 10.62659898 -8.984375 1.14526367 C-5.75289168 0.06810256 -3.39902019 0.01193352 0 0 Z " fill="#BD2F38" transform="translate(41.984375,27.854736328125)"/>
<path d="M0 0 C2.89797974 -0.32279968 2.89797974 -0.32279968 6.65283203 -0.2487793 C7.69397313 -0.23445343 7.69397313 -0.23445343 8.75614738 -0.21983814 C11.0072011 -0.18541619 13.25720223 -0.13019526 15.5078125 -0.07421875 C16.89572865 -0.04993959 18.28366931 -0.02702152 19.67163086 -0.00549316 C24.82306726 0.08398975 29.97401798 0.19985722 35.125 0.3125 C52.388125 0.6528125 52.388125 0.6528125 70 1 C70 27.73 70 54.46 70 82 C68.02 82.99 68.02 82.99 66 84 C65.67 84.66 65.34 85.32 65 86 C58.7049767 84.50907343 54.08511286 80.80816773 49 77 C48.20464844 76.4121875 47.40929687 75.824375 46.58984375 75.21875 C24.55439572 58.30699151 2.3518697 31.28715305 -2 3 C-1.34 2.01 -0.68 1.02 0 0 Z " fill="#6E4839" transform="translate(29,96)"/>
<path d="M0 0 C20.79 0 41.58 0 63 0 C62 11 62 11 60 15 C59.34 15 58.68 15 58 15 C57.89429688 15.70125 57.78859375 16.4025 57.6796875 17.125 C56.90692319 20.3937042 55.65657401 23.01304969 54.125 26 C53.61195313 27.010625 53.09890625 28.02125 52.5703125 29.0625 C49.59231749 34.63327674 49.59231749 34.63327674 48 37 C47.34 37 46.68 37 46 37 C46 38.32 46 39.64 46 41 C45.34 41 44.68 41 44 41 C43.731875 41.57234375 43.46375 42.1446875 43.1875 42.734375 C41.95867364 45.07884634 40.57477824 47.12404938 39 49.25 C38.484375 49.95640625 37.96875 50.6628125 37.4375 51.390625 C36.963125 51.92171875 36.48875 52.4528125 36 53 C35.34 53 34.68 53 34 53 C34 53.66 34 54.32 34 55 C33.34 55 32.68 55 32 55 C32 55.66 32 56.32 32 57 C30.35648543 58.36176922 28.68477344 59.68962066 27 61 C24.29046625 63.58350893 22.07904656 65.88143016 20 69 C18.046875 70.0625 18.046875 70.0625 15.75 71 C14.54923828 71.50660156 14.54923828 71.50660156 13.32421875 72.0234375 C12.55722656 72.34570312 11.79023437 72.66796875 11 73 C6.65066619 75.01470976 6.65066619 75.01470976 3 78 C2.01 78 1.02 78 0 78 C-0.16819265 71.50399678 -0.32808921 65.0078276 -0.48217773 58.51147461 C-0.53559726 56.30081542 -0.59092658 54.09020154 -0.64819336 51.87963867 C-0.73010535 48.70501474 -0.80518211 45.53029206 -0.87890625 42.35546875 C-0.90594131 41.36475876 -0.93297638 40.37404877 -0.96083069 39.35331726 C-0.98092697 38.43258926 -1.00102325 37.51186127 -1.02172852 36.56323242 C-1.04171402 35.7527092 -1.06169952 34.94218597 -1.08229065 34.10710144 C-1 32 -1 32 0 29 C0.84921836 25.0086737 1.01272091 23.05088365 0 19 C0 12.73 0 6.46 0 0 Z " fill="#BC2F38" transform="translate(102,97)"/>
<path d="M0 0 C49.83 0 99.66 0 151 0 C153.09497545 5.58660119 154.72002493 10.42470874 155.6640625 16.203125 C155.79019928 16.97368225 155.91633606 17.7442395 156.04629517 18.53814697 C157.3203287 27.04641038 157.45322513 35.51700261 157.39111328 44.10595703 C157.37492346 46.76255926 157.39112856 49.4176599 157.41015625 52.07421875 C157.42317302 62.13425726 156.70134172 71.25587452 154 81 C153.77570313 81.82693359 153.55140625 82.65386719 153.3203125 83.50585938 C152.70227784 85.65025237 152.02936631 87.76176136 151.3125 89.875 C151.05831299 90.62620117 150.80412598 91.37740234 150.54223633 92.15136719 C138.63414329 126.09709544 113.92162688 153.25018301 83 171 C81.98679687 171.59039062 80.97359375 172.18078125 79.9296875 172.7890625 C76.55770556 174.18281504 75.39891533 174.18616294 72 173 C56.75187297 166.14148894 43.79249803 155.6873523 32 144 C31.21109375 143.22398437 30.4221875 142.44796875 29.609375 141.6484375 C12.15727949 123.3802368 1.8463039 100.27161446 -4 76 C-4.19505127 75.28287842 -4.39010254 74.56575684 -4.59106445 73.8269043 C-6.53796338 65.83259653 -6.33663929 57.69415389 -6.31567383 49.5168457 C-6.3125365 46.96716593 -6.33595349 44.4186758 -6.36132812 41.86914062 C-6.41972908 27.1208463 -4.26371103 14.21237009 0 0 Z M3 3 C-8.12062546 36.36187638 -5.22026506 74.53237711 10.04785156 106.17138672 C17.29037199 120.43804375 27.0127702 132.47241463 38 144 C38.68964844 144.7425 39.37929687 145.485 40.08984375 146.25 C47.3467396 153.84822224 55.95742105 159.48236038 64.875 164.9375 C65.50543213 165.32736084 66.13586426 165.71722168 66.78540039 166.11889648 C71.59272608 169.05515042 71.59272608 169.05515042 77 170 C79.67048844 168.86616133 81.96274078 167.71781914 84.4375 166.25 C85.14197266 165.83951416 85.84644531 165.42902832 86.57226562 165.00610352 C105.11740595 153.92359098 121.54029067 138.33453496 133 120 C133.38736328 119.38721191 133.77472656 118.77442383 134.17382812 118.14306641 C153.41735346 87.22503002 159.38789806 48.15243389 151.234375 12.66796875 C149.95337806 7.71070827 149.95337806 7.71070827 148 3 C100.15 3 52.3 3 3 3 Z " fill="#E1C5A8" transform="translate(25,16)"/>
<path d="M0 0 C1.84706543 -0.00956978 1.84706543 -0.00956978 3.73144531 -0.01933289 C5.07617148 -0.02086138 6.42089817 -0.02197544 7.765625 -0.02270508 C9.14420608 -0.02591839 10.52278682 -0.02928252 11.90136719 -0.03279114 C14.78972159 -0.03877709 17.67804608 -0.04063152 20.56640625 -0.04003906 C24.26877599 -0.03993733 27.97095445 -0.05360355 31.67327881 -0.07081127 C34.51970299 -0.0819236 37.36608076 -0.08395853 40.21252441 -0.08342934 C41.57768413 -0.08461007 42.94284502 -0.08903711 44.3079834 -0.0967617 C46.21571385 -0.106548 48.1235004 -0.10242282 50.03125 -0.09765625 C51.65981934 -0.09979378 51.65981934 -0.09979378 53.32128906 -0.10197449 C56.015625 0.14526367 56.015625 0.14526367 59.015625 2.14526367 C59.37638855 4.89138794 59.37638855 4.89138794 59.35620117 8.4309082 C59.35656278 9.08535353 59.35692438 9.73979885 59.35729694 10.41407585 C59.35505499 12.53571887 59.33219833 14.65657435 59.30859375 16.77807617 C59.30557251 18.07350342 59.30255127 19.36893066 59.29943848 20.70361328 C59.28370014 25.55924404 59.24181653 30.41476156 59.203125 35.27026367 C59.14125 46.11901367 59.079375 56.96776367 59.015625 68.14526367 C80.795625 68.14526367 102.575625 68.14526367 125.015625 68.14526367 C124.015625 75.14526367 124.015625 75.14526367 122.015625 77.14526367 C122.345625 74.50526367 122.675625 71.86526367 123.015625 69.14526367 C102.225625 69.14526367 81.435625 69.14526367 60.015625 69.14526367 C60.345625 76.40526367 60.675625 83.66526367 61.015625 91.14526367 C61.015625 92.46526367 61.015625 93.78526367 61.015625 95.14526367 C61.03625 96.03213867 61.056875 96.91901367 61.078125 97.83276367 C61.015625 100.14526367 61.015625 100.14526367 60.015625 101.14526367 C59.92266685 102.58816154 59.89815987 104.03556152 59.90209961 105.48144531 C59.90217514 106.40232437 59.90225067 107.32320343 59.90232849 108.27198792 C59.90748978 109.27302048 59.91265106 110.27405304 59.91796875 111.30541992 C59.9193837 112.32502304 59.92079865 113.34462616 59.92225647 114.39512634 C59.92787403 117.66603475 59.9404295 120.9368758 59.953125 124.20776367 C59.95813774 126.41935123 59.96270104 128.63093985 59.96679688 130.8425293 C59.97784916 136.27679724 59.99460437 141.71102565 60.015625 147.14526367 C60.78003906 146.68120117 61.54445313 146.21713867 62.33203125 145.73901367 C65.16660896 144.05559634 68.05531205 142.59521287 71.015625 141.14526367 C72.0675 140.58838867 73.119375 140.03151367 74.203125 139.45776367 C77.015625 138.14526367 77.015625 138.14526367 80.015625 138.14526367 C80.2425 137.58838867 80.469375 137.03151367 80.703125 136.45776367 C82.38281335 133.49831277 84.55695785 131.48399584 87.015625 129.14526367 C87.8509375 128.24807617 87.8509375 128.24807617 88.703125 127.33276367 C90.015625 126.14526367 90.015625 126.14526367 92.015625 126.14526367 C92.015625 125.48526367 92.015625 124.82526367 92.015625 124.14526367 C92.675625 124.14526367 93.335625 124.14526367 94.015625 124.14526367 C94.015625 123.48526367 94.015625 122.82526367 94.015625 122.14526367 C95.68229167 120.47859701 97.34895833 118.81193034 99.015625 117.14526367 C99.93261584 115.88961144 100.8286792 114.6184072 101.703125 113.33276367 C102.46625 112.28088867 103.229375 111.22901367 104.015625 110.14526367 C104.675625 110.14526367 105.335625 110.14526367 106.015625 110.14526367 C105.70625 110.68151367 105.396875 111.21776367 105.078125 111.77026367 C103.5716829 115.13760484 102.470042 118.51840133 103.67578125 122.11376953 C104.015625 124.14526367 104.015625 124.14526367 102.8984375 125.89355469 C102.31835938 126.47290771 101.73828125 127.05226074 101.140625 127.64916992 C100.49262939 128.30216064 99.84463379 128.95515137 99.17700195 129.62792969 C98.46374756 130.3142749 97.75049316 131.00062012 97.015625 131.70776367 C96.28883545 132.41795654 95.5620459 133.12814941 94.81323242 133.85986328 C84.91978379 143.3397904 73.02662318 153.28879081 60.015625 158.14526367 C56.12363345 157.81581245 53.97537726 156.66653412 51.015625 154.14526367 C51.675625 152.82526367 52.335625 151.50526367 53.015625 150.14526367 C54.335625 150.14526367 55.655625 150.14526367 57.015625 150.14526367 C57.015625 123.41526367 57.015625 96.68526367 57.015625 69.14526367 C35.565625 69.14526367 14.115625 69.14526367 -7.984375 69.14526367 C-12.36635055 58.19032481 -12.24771871 47.01091518 -12.109375 35.39526367 C-12.09931473 33.9082906 -12.09019432 32.42131087 -12.08203125 30.93432617 C-12.060283 27.33783044 -12.02592518 23.74159167 -11.984375 20.14526367 C-11.654375 20.14526367 -11.324375 20.14526367 -10.984375 20.14526367 C-10.96979248 21.02674072 -10.95520996 21.90821777 -10.94018555 22.81640625 C-10.87851443 26.13989127 -10.80425667 29.46263085 -10.72192383 32.78564453 C-10.68901414 34.21392516 -10.66088089 35.64232527 -10.63793945 37.07080078 C-10.50812516 44.94528062 -10.13331056 52.26776808 -7.61645508 59.81982422 C-6.984375 62.14526367 -6.984375 62.14526367 -6.984375 67.14526367 C14.135625 67.14526367 35.255625 67.14526367 57.015625 67.14526367 C56.685625 45.69526367 56.355625 24.24526367 56.015625 2.14526367 C45.8475 2.28963867 35.679375 2.43401367 25.203125 2.58276367 C20.38883911 2.64741821 20.38883911 2.64741821 15.47729492 2.71337891 C12.94188883 2.75149404 10.406488 2.7899625 7.87109375 2.82885742 C7.21208572 2.83699966 6.5530777 2.84514191 5.87409973 2.85353088 C3.93187486 2.87789463 1.98973535 2.90879425 0.04760742 2.93994141 C-1.04715408 2.95548569 -2.14191559 2.97102997 -3.26985168 2.98704529 C-6.08059604 3.03262023 -6.08059604 3.03262023 -8.984375 4.14526367 C-8.984375 3.15526367 -8.984375 2.16526367 -8.984375 1.14526367 C-5.75289168 0.06810256 -3.39902019 0.01193352 0 0 Z " fill="#9A3A38" transform="translate(41.984375,27.854736328125)"/>
<path d="M0 0 C2.1875 -0.375 2.1875 -0.375 5 0 C7.875 2.6875 7.875 2.6875 10 6 C9.8125 8.875 9.8125 8.875 9 11 C8.01 11.33 7.02 11.66 6 12 C6 15.96 6 19.92 6 24 C10.29 24 14.58 24 19 24 C19.33 22.68 19.66 21.36 20 20 C21.65 20 23.3 20 25 20 C25 21.32 25 22.64 25 24 C26.65 24.33 28.3 24.66 30 25 C29.67 26.98 29.34 28.96 29 31 C27.68 31 26.36 31 25 31 C25 32.65 25 34.3 25 36 C22.69 36 20.38 36 18 36 C18 35.01 18 34.02 18 33 C14.37 32.67 10.74 32.34 7 32 C7.1546875 34.165625 7.1546875 34.165625 7.3125 36.375 C7.37050781 37.18710938 7.42851563 37.99921875 7.48828125 38.8359375 C7.82990528 41.37921338 7.82990528 41.37921338 11 43 C11.6875 45.75 11.6875 45.75 11 49 C8.64010449 51.51610608 6.12858711 53.53276116 3 55 C-0.53781203 54.72226522 -1.16502496 53.83497504 -3.8125 51.1875 C-6 48 -6 48 -5.8125 45.625 C-5.544375 45.08875 -5.27625 44.5525 -5 44 C-3.68 44 -2.36 44 -1 44 C-1 39.71 -1 35.42 -1 31 C-5.29 30.67 -9.58 30.34 -14 30 C-14 31.65 -14 33.3 -14 35 C-15.65 34.67 -17.3 34.34 -19 34 C-19 32.68 -19 31.36 -19 30 C-20.98 30 -22.96 30 -25 30 C-24.67 28.35 -24.34 26.7 -24 25 C-22.68 24.67 -21.36 24.34 -20 24 C-19.67 22.35 -19.34 20.7 -19 19 C-17.02 19.33 -15.04 19.66 -13 20 C-13 21.32 -13 22.64 -13 24 C-9.04 24 -5.08 24 -1 24 C-1.33 20.04 -1.66 16.08 -2 12 C-3.32 11.67 -4.64 11.34 -6 11 C-6 9.35 -6 7.7 -6 6 C-4.35 5.67 -2.7 5.34 -1 5 C-0.67 3.35 -0.34 1.7 0 0 Z " fill="#734436" transform="translate(63,34)"/>
<path d="M0 0 C21.78 0 43.56 0 66 0 C66 26.73 66 53.46 66 81 C74.21929873 78.42198058 74.21929873 78.42198058 80.375 73.8125 C84.7027027 70 84.7027027 70 88 70 C88.226875 69.443125 88.45375 68.88625 88.6875 68.3125 C90.36718835 65.3530491 92.54133285 63.33873216 95 61 C95.556875 60.401875 96.11375 59.80375 96.6875 59.1875 C98 58 98 58 100 58 C100 57.34 100 56.68 100 56 C100.66 56 101.32 56 102 56 C102 55.34 102 54.68 102 54 C103.66666667 52.33333333 105.33333333 50.66666667 107 49 C107.91699084 47.74434777 108.8130542 46.47314352 109.6875 45.1875 C110.450625 44.135625 111.21375 43.08375 112 42 C112.66 42 113.32 42 114 42 C113.5359375 42.804375 113.5359375 42.804375 113.0625 43.625 C111.5560579 46.99234117 110.454417 50.37313766 111.66015625 53.96850586 C112 56 112 56 110.8828125 57.74829102 C110.01269531 58.61732056 110.01269531 58.61732056 109.125 59.50390625 C108.15300659 60.48339233 108.15300659 60.48339233 107.16137695 61.48266602 C106.44812256 62.16901123 105.73486816 62.85535645 105 63.5625 C104.27321045 64.27269287 103.5464209 64.98288574 102.79760742 65.71459961 C92.90415879 75.19452673 81.01099818 85.14352714 68 90 C64.10800845 89.67054878 61.95975226 88.52127044 59 86 C59.66 84.68 60.32 83.36 61 82 C62.32 82 63.64 82 65 82 C65 55.27 65 28.54 65 1 C43.55 1 22.1 1 0 1 C0 0.67 0 0.34 0 0 Z " fill="#754537" transform="translate(34,96)"/>
<path d="M0 0 C10 0 10 0 17 3 C17 13.56 17 24.12 17 35 C13.37 33.35 9.74 31.7 6 30 C3.69 29.34 1.38 28.68 -1 28 C-0.67 18.76 -0.34 9.52 0 0 Z " fill="#FBF8F5" transform="translate(118,43)"/>
<path d="M0 0 C0.9821994 3.27626375 1.11580914 6.22788119 1.09765625 9.640625 C1.09443359 10.71054687 1.09121094 11.78046875 1.08789062 12.8828125 C1.07951172 13.99398437 1.07113281 15.10515625 1.0625 16.25 C1.05798828 17.37664063 1.05347656 18.50328125 1.04882812 19.6640625 C1.03705397 22.44276217 1.0206084 25.22135409 1 28 C0.19175781 28.26554687 -0.61648437 28.53109375 -1.44921875 28.8046875 C-2.51785156 29.15789062 -3.58648437 29.51109375 -4.6875 29.875 C-5.74324219 30.22304687 -6.79898438 30.57109375 -7.88671875 30.9296875 C-10.62123309 31.86978402 -13.31521686 32.92608675 -16 34 C-16 23.77 -16 13.54 -16 3 C-8.88086054 0.3303227 -6.80184379 -0.36438449 0 0 Z " fill="#FCFAF9" transform="translate(154,43)"/>
<path d="M0 0 C49.83 0 99.66 0 151 0 C150.67 1.32 150.34 2.64 150 4 C76.74 3.505 76.74 3.505 2 3 C2 2.34 2 1.68 2 1 C1.34 0.67 0.68 0.34 0 0 Z " fill="#E9D0B0" transform="translate(25,16)"/>
<path d="M0 0 C1.75 1.1875 1.75 1.1875 3 3 C3.1875 5.6875 3.1875 5.6875 3 8 C2.01 8 1.02 8 0 8 C0 10.97 0 13.94 0 17 C1.299375 16.87625 2.59875 16.7525 3.9375 16.625 C5.03384766 16.52058594 5.03384766 16.52058594 6.15234375 16.4140625 C6.76207031 16.27742188 7.37179688 16.14078125 8 16 C8.33 15.34 8.66 14.68 9 14 C11.475 14.495 11.475 14.495 14 15 C14 15.66 14 16.32 14 17 C14.99 17 15.98 17 17 17 C16.505 19.475 16.505 19.475 16 22 C15.01 22 14.02 22 13 22 C13 22.66 13 23.32 13 24 C8.71 23.34 4.42 22.68 0 22 C0 24.64 0 27.28 0 30 C0.99 30 1.98 30 3 30 C3.36275695 34.47400242 3.36275695 34.47400242 1.75 36.8125 C0 38 0 38 -4 38 C-4.33 37.34 -4.66 36.68 -5 36 C-5.99 35.67 -6.98 35.34 -8 35 C-7.67 33.35 -7.34 31.7 -7 30 C-6.01 30 -5.02 30 -4 30 C-4 27.36 -4 24.72 -4 22 C-5.41702513 22.14230808 -6.8336096 22.28900746 -8.25 22.4375 C-9.03890625 22.51871094 -9.8278125 22.59992188 -10.640625 22.68359375 C-12.82364639 22.97634993 -14.8773182 23.42064419 -17 24 C-17 23.34 -17 22.68 -17 22 C-17.99 22 -18.98 22 -20 22 C-19.47731534 19.23723823 -18.89130413 16.6739124 -18 14 C-16.35 14.33 -14.7 14.66 -13 15 C-13 15.66 -13 16.32 -13 17 C-10.36 17 -7.72 17 -5 17 C-5.12375 15.700625 -5.2475 14.40125 -5.375 13.0625 C-5.44460937 12.33160156 -5.51421875 11.60070312 -5.5859375 10.84765625 C-5.79089844 9.93306641 -5.79089844 9.93306641 -6 9 C-6.66 8.67 -7.32 8.34 -8 8 C-7.63487253 5.2980567 -7.30130763 3.41609148 -5.6875 1.1875 C-4 0 -4 0 0 0 Z " fill="#794236" transform="translate(128,106)"/>
<path d="M0 0 C1.23839599 6.65637843 1.09139136 13.2471936 1 20 C0.39671875 20.19335938 -0.2065625 20.38671875 -0.828125 20.5859375 C-2.02695313 20.97652344 -2.02695313 20.97652344 -3.25 21.375 C-4.03890625 21.63023437 -4.8278125 21.88546875 -5.640625 22.1484375 C-7.86842719 22.9525118 -9.89409139 23.92373305 -12 25 C-12.14500644 21.39625537 -12.23396763 17.79325758 -12.3125 14.1875 C-12.35439453 13.16333984 -12.39628906 12.13917969 -12.43945312 11.08398438 C-12.48497343 8.30724577 -12.47143408 5.73744319 -12 3 C-8.32725911 -0.52180634 -4.94127448 -0.2906632 0 0 Z " fill="#F4F0ED" transform="translate(87,112)"/>
<path d="M0 0 C7.625 0.875 7.625 0.875 11 2 C11 9.26 11 16.52 11 24 C7 22.66666667 3 21.33333333 -1 20 C-1.02703562 17.41659616 -1.04685611 14.83347692 -1.0625 12.25 C-1.07087891 11.52039063 -1.07925781 10.79078125 -1.08789062 10.0390625 C-1.10391684 6.51329442 -0.95292713 3.38965084 0 0 Z " fill="#F9F7F4" transform="translate(62,112)"/>
<path d="M0 0 C0.66 0 1.32 0 2 0 C2 5.94 2 11.88 2 18 C4.64 18.33 7.28 18.66 10 19 C10.66 19.66 11.32 20.32 12 21 C7.20127899 23.23940314 2.17144153 24.0560864 -3 25 C-3.1490712 27.0745356 -3.1490712 27.0745356 -2 29 C-2.33 29.99 -2.66 30.98 -3 32 C-6.8548189 30.71506037 -8.8601862 28.19451637 -11.09375 24.953125 C-12.55227004 21.80976285 -11.86091673 19.24499384 -11 16 C-10.01 15.67 -9.02 15.34 -8 15 C-7.67 14.34 -7.34 13.68 -7 13 C-6.34 13.33 -5.68 13.66 -5 14 C-1.74665741 12.31238846 -1.74665741 12.31238846 -1.26953125 9.1796875 C-1.11871094 8.08914062 -0.96789063 6.99859375 -0.8125 5.875 C-0.65394531 4.77929688 -0.49539062 3.68359375 -0.33203125 2.5546875 C-0.22246094 1.71164063 -0.11289062 0.86859375 0 0 Z " fill="#6F4A38" transform="translate(57,116)"/>
<path d="M0 0 C0.99 0.495 0.99 0.495 2 1 C2 22.45 2 43.9 2 66 C-20.11 66 -42.22 66 -65 66 C-68.375 48 -68.375 48 -68.29296875 41.4375 C-68.28872391 40.74986572 -68.28447906 40.06223145 -68.28010559 39.35375977 C-68.26379984 37.23537498 -68.22626318 35.11807856 -68.1875 33 C-68.17239022 31.53126409 -68.15871319 30.06251272 -68.14648438 28.59375 C-68.11405864 25.06216834 -68.06264394 21.53119082 -68 18 C-67.67 18 -67.34 18 -67 18 C-66.98541748 18.88147705 -66.97083496 19.7629541 -66.95581055 20.67114258 C-66.89413943 23.9946276 -66.81988167 27.31736718 -66.73754883 30.64038086 C-66.70463914 32.06866149 -66.67650589 33.49706159 -66.65356445 34.92553711 C-66.52375016 42.80001695 -66.14893556 50.12250441 -63.63208008 57.67456055 C-63 60 -63 60 -63 65 C-41.88 65 -20.76 65 1 65 C0.67 43.55 0.34 22.1 0 0 Z " fill="#AD3639" transform="translate(98,30)"/>
<path d="M0 0 C0.99 0 1.98 0 3 0 C3.16311941 8.71782637 2.65655389 17.31238511 2 26 C2.99580078 26.07347656 2.99580078 26.07347656 4.01171875 26.1484375 C12.78207381 26.89103691 12.78207381 26.89103691 17 29 C17 29.33 17 29.66 17 30 C10.4 30 3.8 30 -3 30 C-3.9765625 20.8203125 -3.9765625 20.8203125 -4 18 C-3.34 17.34 -2.68 16.68 -2 16 C-1.83272272 13.76079625 -1.83272272 13.76079625 -2 11.25 C-2.09670597 7.07955494 -1.63988352 3.89472336 0 0 Z " fill="#F6EFEB" transform="translate(112,48)"/>
<path d="M0 0 C0.99 0 1.98 0 3 0 C4.27168566 5.10945133 5.13245134 9.70194654 5 15 C5.33 15.33 5.66 15.66 6 16 C5.82102297 20.34740991 5.37884053 24.66438057 5 29 C-1.27 29 -7.54 29 -14 29 C-9.88004859 25.91003645 -7.77127069 24.85620868 -2.8125 24.9375 C-0.9253125 24.9684375 -0.9253125 24.9684375 1 25 C0.835 23.845 0.67 22.69 0.5 21.5 C-0.31353872 14.3614842 -0.07920722 7.17265341 0 0 Z " fill="#FAF4F0" transform="translate(158,49)"/>
<path d="M0 0 C0.93065133 2.60582371 1.14917407 3.64198224 0.0625 6.25 C-0.288125 6.8275 -0.63875 7.405 -1 8 C-0.34 8 0.32 8 1 8 C3 11 3 11 2.8125 13.9375 C2.00070842 16.9973298 1.07524374 18.65407229 -1 21 C-1.33 20.01 -1.66 19.02 -2 18 C-3.32 18.33 -4.64 18.66 -6 19 C-5.87625 20.36125 -5.87625 20.36125 -5.75 21.75 C-6 25 -6 25 -7.75 27.25 C-9.79188554 28.83813319 -11.66915824 29.91227385 -14 31 C-14.66 31.66 -15.32 32.32 -16 33 C-16 31.68 -16 30.36 -16 29 C-15.34 29 -14.68 29 -14 29 C-13.82404297 28.12214844 -13.82404297 28.12214844 -13.64453125 27.2265625 C-12.96617325 24.88314396 -12.06355765 23.37731298 -10.6875 21.375 C-7.74695362 16.84450704 -5.85411849 12.05480347 -4 7 C-3.34 7 -2.68 7 -2 7 C-1.855625 6.401875 -1.71125 5.80375 -1.5625 5.1875 C-1.1127561 3.43849596 -0.57107659 1.71322977 0 0 Z " fill="#764739" transform="translate(164,105)"/>
<path d="M0 0 C21.78 0 43.56 0 66 0 C65 7 65 7 63 9 C63.33 6.36 63.66 3.72 64 1 C43.21 1 22.42 1 1 1 C1.33 8.26 1.66 15.52 2 23 C2 26 2 29 2 32 C1.01 32.495 1.01 32.495 0 33 C0 22.11 0 11.22 0 0 Z " fill="#AB3739" transform="translate(101,96)"/>
<path d="M0 0 C0.33 0 0.66 0 1 0 C1.18451025 19.00455581 1.18451025 19.00455581 0 27 C0.69867188 27.12117188 1.39734375 27.24234375 2.1171875 27.3671875 C3.02726562 27.53476563 3.93734375 27.70234375 4.875 27.875 C5.77992187 28.03742188 6.68484375 28.19984375 7.6171875 28.3671875 C10 29 10 29 12 31 C11.34 31.66 10.68 32.32 10 33 C6.9609375 32.5390625 6.9609375 32.5390625 3.375 31.625 C2.18648438 31.32851562 0.99796875 31.03203125 -0.2265625 30.7265625 C-1.59941406 30.36691406 -1.59941406 30.36691406 -3 30 C-3.2936343 5.82410943 -3.2936343 5.82410943 0 0 Z " fill="#71554C" transform="translate(117,44)"/>
<path d="M0 0 C1.79244141 0.01740234 1.79244141 0.01740234 3.62109375 0.03515625 C5.41740234 0.04869141 5.41740234 0.04869141 7.25 0.0625 C8.17683594 0.07410156 9.10367188 0.08570313 10.05859375 0.09765625 C10.05859375 1.74765625 10.05859375 3.39765625 10.05859375 5.09765625 C12.03859375 4.76765625 14.01859375 4.43765625 16.05859375 4.09765625 C16.05859375 4.75765625 16.05859375 5.41765625 16.05859375 6.09765625 C13.74859375 6.09765625 11.43859375 6.09765625 9.05859375 6.09765625 C9.05859375 5.10765625 9.05859375 4.11765625 9.05859375 3.09765625 C5.42859375 2.76765625 1.79859375 2.43765625 -1.94140625 2.09765625 C-1.83828125 3.54140625 -1.73515625 4.98515625 -1.62890625 6.47265625 C-1.54189453 7.69082031 -1.54189453 7.69082031 -1.453125 8.93359375 C-1.11150097 11.47686963 -1.11150097 11.47686963 2.05859375 13.09765625 C2.74609375 15.84765625 2.74609375 15.84765625 2.05859375 19.09765625 C-0.30130176 21.61376233 -2.81281914 23.63041741 -5.94140625 25.09765625 C-8.20703125 24.7578125 -8.20703125 24.7578125 -9.94140625 24.09765625 C-9.94140625 23.43765625 -9.94140625 22.77765625 -9.94140625 22.09765625 C-9.17828125 22.18015625 -8.41515625 22.26265625 -7.62890625 22.34765625 C-4.79724281 22.40107696 -4.79724281 22.40107696 -3.25390625 20.09765625 C-2.60421875 19.10765625 -2.60421875 19.10765625 -1.94140625 18.09765625 C-1.28140625 18.09765625 -0.62140625 18.09765625 0.05859375 18.09765625 C0.05859375 17.10765625 0.05859375 16.11765625 0.05859375 15.09765625 C-1.26140625 14.76765625 -2.58140625 14.43765625 -3.94140625 14.09765625 C-3.96826563 11.95188988 -3.98773713 9.8060298 -4.00390625 7.66015625 C-4.01550781 6.46519531 -4.02710937 5.27023438 -4.0390625 4.0390625 C-3.90927257 0.12978993 -3.90927257 0.12978993 0 0 Z " fill="#923B36" transform="translate(71.94140625,63.90234375)"/>
<path d="M0 0 C1.32 0.33 2.64 0.66 4 1 C3.01 1 2.02 1 1 1 C1.33 9.25 1.66 17.5 2 26 C-1.63 26.66 -5.26 27.32 -9 28 C-10.32 28.33 -11.64 28.66 -13 29 C-13.33 28.01 -13.66 27.02 -14 26 C-12.75336669 25.49166409 -11.50250613 24.99368855 -10.25 24.5 C-9.55390625 24.2215625 -8.8578125 23.943125 -8.140625 23.65625 C-6 23 -6 23 -2 23 C-2.01160156 21.92878906 -2.02320313 20.85757813 -2.03515625 19.75390625 C-2.04453299 18.35677257 -2.05363331 16.95963701 -2.0625 15.5625 C-2.07506836 14.50192383 -2.07506836 14.50192383 -2.08789062 13.41992188 C-2.09653588 11.61306441 -2.05220011 9.80612397 -2 8 C-1.67 7.67 -1.34 7.34 -1 7 C-0.63239269 4.67182036 -0.29758419 2.3381615 0 0 Z " fill="#765C54" transform="translate(157,48)"/>
<path d="M0 0 C0.66 0.33 1.32 0.66 2 1 C1.34 2.65 0.68 4.3 0 6 C1.98 6 3.96 6 6 6 C6.33 7.32 6.66 8.64 7 10 C8.32 10.33 9.64 10.66 11 11 C11 9.35 11 7.7 11 6 C12.79158489 5.97303635 14.58328473 5.95362083 16.375 5.9375 C17.37273438 5.92589844 18.37046875 5.91429687 19.3984375 5.90234375 C22 6 22 6 24 7 C24 11.29 24 15.58 24 20 C22.68 20.33 21.36 20.66 20 21 C20.50603992 23.16874252 20.99983813 24.99967627 22 27 C20.0625 26.25 20.0625 26.25 18 25 C17.25 22.875 17.25 22.875 17 21 C17.804375 20.525625 18.60875 20.05125 19.4375 19.5625 C23.13098718 15.86901282 22.77349252 13.13416952 23 8 C19.7 8 16.4 8 13 8 C13 9.32 13 10.64 13 12 C5.52908757 13.34721372 5.52908757 13.34721372 3 11.6875 C2 10 2 10 2 8 C1.01 7.67 0.02 7.34 -1 7 C-1.04254356 5.00045254 -1.04080783 2.99958364 -1 1 C-0.67 0.67 -0.34 0.34 0 0 Z " fill="#9A3938" transform="translate(38,58)"/>
<path d="M0 0 C0.99 0 1.98 0 3 0 C3.23974178 1.64394361 3.47766913 3.28816987 3.70703125 4.93359375 C3.9011083 6.3024839 4.10670425 7.66979418 4.32421875 9.03515625 C4.99240532 13.53890729 4.77639181 16.34164912 4 21 C-0.29 21 -4.58 21 -9 21 C-8.67 20.34 -8.34 19.68 -8 19 C-5.93359375 18.5859375 -5.93359375 18.5859375 -3.4375 18.375 C-2.61121094 18.30023438 -1.78492187 18.22546875 -0.93359375 18.1484375 C0.02353516 18.07496094 0.02353516 18.07496094 1 18 C0.835 17.2575 0.67 16.515 0.5 15.75 C-0.20054587 10.49590599 -0.07707499 5.29248251 0 0 Z " fill="#EADFDA" transform="translate(89,116)"/>
<path d="M0 0 C0.66 0 1.32 0 2 0 C3.36077099 3.74665613 2.61317131 6.39346612 1.625 10.1875 C0.31462417 15.48883783 -0.53929046 20.5636274 -1 26 C-3.52035877 23.80838368 -4.66131497 22.35240772 -5 19 C-4.64708605 16.44772629 -4.22626968 14.01100799 -3.6875 11.5 C-3.55666016 10.83613281 -3.42582031 10.17226563 -3.29101562 9.48828125 C-2.58287082 6.06044987 -1.77149636 3.03243044 0 0 Z " fill="#DDC0A4" transform="translate(25,17)"/>
<path d="M0 0 C0.66 0 1.32 0 2 0 C2 5.94 2 11.88 2 18 C4.64 18.33 7.28 18.66 10 19 C10.66 19.66 11.32 20.32 12 21 C7.71 21 3.42 21 -1 21 C-2.23649903 13.5810058 -1.50382815 7.34514411 0 0 Z " fill="#F4EBE4" transform="translate(57,116)"/>
<path d="M0 0 C0.66 0.33 1.32 0.66 2 1 C2 10.24 2 19.48 2 29 C1.34 29 0.68 29 0 29 C-1.28947284 26.42105432 -1.1294785 24.5447811 -1.1328125 21.66015625 C-1.13410156 20.59732422 -1.13539063 19.53449219 -1.13671875 18.43945312 C-1.13285156 17.32505859 -1.12898437 16.21066406 -1.125 15.0625 C-1.12886719 13.95197266 -1.13273438 12.84144531 -1.13671875 11.69726562 C-1.13542969 10.63314453 -1.13414062 9.56902344 -1.1328125 8.47265625 C-1.13168457 7.49562744 -1.13055664 6.51859863 -1.12939453 5.51196289 C-1 3 -1 3 0 0 Z " fill="#E8D0AD" transform="translate(180,51)"/>
<path d="M0 0 C0.33 0 0.66 0 1 0 C1 11.88 1 23.76 1 36 C2.65 35.01 4.3 34.02 6 33 C11.55555556 30 11.55555556 30 15 30 C13.83352268 31.187686 12.64059001 32.34941676 11.4375 33.5 C10.44556641 34.47453125 10.44556641 34.47453125 9.43359375 35.46875 C7 37 7 37 0 37 C0 24.79 0 12.58 0 0 Z " fill="#A53738" transform="translate(101,139)"/>
<path d="M0 0 C3.96 0 7.92 0 12 0 C12.33 1.65 12.66 3.3 13 5 C2.44191344 6.51708428 2.44191344 6.51708428 -2 4 C-1.34 2.68 -0.68 1.36 0 0 Z " fill="#8C6A55" transform="translate(131,170)"/>
<path d="M0 0 C0.33 0 0.66 0 1 0 C1.125 2.875 1.125 2.875 1 6 C0.34 6.66 -0.32 7.32 -1 8 C-0.938125 9.423125 -0.938125 9.423125 -0.875 10.875 C-1 14 -1 14 -2.75 16.25 C-4.79188554 17.83813319 -6.66915824 18.91227385 -9 20 C-9.66 20.66 -10.32 21.32 -11 22 C-11 20.68 -11 19.36 -11 18 C-10.34 18 -9.68 18 -9 18 C-8.88398438 17.41992188 -8.76796875 16.83984375 -8.6484375 16.2421875 C-7.95508073 13.84467673 -6.99978253 12.19967182 -5.625 10.125 C-3.50706335 6.84680241 -1.67690053 3.53031691 0 0 Z " fill="#7F4037" transform="translate(159,116)"/>
<path d="M0 0 C0.99 0.495 0.99 0.495 2 1 C2.99 0.67 3.98 0.34 5 0 C5.33 2.64 5.66 5.28 6 8 C8.97 8 11.94 8 15 8 C14.67 8.66 14.34 9.32 14 10 C11.05859375 10.6328125 11.05859375 10.6328125 7.4375 11.125 C6.23996094 11.29257813 5.04242188 11.46015625 3.80859375 11.6328125 C2.88175781 11.75398437 1.95492187 11.87515625 1 12 C1.66 10.02 2.32 8.04 3 6 C2.34 6 1.68 6 1 6 C0.67 4.02 0.34 2.04 0 0 Z " fill="#715045" transform="translate(50,129)"/>
<path d="M0 0 C0.66 0 1.32 0 2 0 C2 5.28 2 10.56 2 16 C6.455 16.99 6.455 16.99 11 18 C11 18.99 11 19.98 11 21 C7.37 20.01 3.74 19.02 0 18 C0 12.06 0 6.12 0 0 Z " fill="#735E58" transform="translate(59,116)"/>
<path d="M0 0 C0.99 0 1.98 0 3 0 C3 0.66 3 1.32 3 2 C3.56203125 1.67257813 4.1240625 1.34515625 4.703125 1.0078125 C7.26859964 -0.11785494 8.96842277 -0.2068111 11.75 -0.125 C12.54921875 -0.10695313 13.3484375 -0.08890625 14.171875 -0.0703125 C14.77515625 -0.04710938 15.3784375 -0.02390625 16 0 C16 2.64 16 5.28 16 8 C15.01 8.33 14.02 8.66 13 9 C11.79117904 11.00016466 11.79117904 11.00016466 11 13 C10.875 10.625 10.875 10.625 11 8 C11.66 7.34 12.32 6.68 13 6 C13.64767793 3.42938689 13.64767793 3.42938689 14 1 C12.4221875 1.4640625 12.4221875 1.4640625 10.8125 1.9375 C7.87247604 2.75685094 4.99838377 3.45483931 2 4 C1.34 2.68 0.68 1.36 0 0 Z " fill="#A23938" transform="translate(108,128)"/>
<path d="M0 0 C0.33 0 0.66 0 1 0 C1 2.64 1 5.28 1 8 C-1.64 8 -4.28 8 -7 8 C-7.33 7.34 -7.66 6.68 -8 6 C-10.02463255 5.34786708 -10.02463255 5.34786708 -12 5 C-12.144375 5.5775 -12.28875 6.155 -12.4375 6.75 C-12.95833333 8.83333333 -13.47916667 10.91666667 -14 13 C-14.66 13 -15.32 13 -16 13 C-16 11.02 -16 9.04 -16 7 C-15.01 7 -14.02 7 -13 7 C-12.67 5.68 -12.34 4.36 -12 3 C-10.25 2.25 -10.25 2.25 -8 2 C-6.62437146 3.28965176 -5.29233607 4.62689293 -4 6 C-1.8618034 6.7872678 -1.8618034 6.7872678 0 7 C0 4.69 0 2.38 0 0 Z " fill="#A33739" transform="translate(122,115)"/>
<path d="M0 0 C0.33 0 0.66 0 1 0 C1 1.98 1 3.96 1 6 C0.06027344 6.16435547 0.06027344 6.16435547 -0.8984375 6.33203125 C-2.12433594 6.56986328 -2.12433594 6.56986328 -3.375 6.8125 C-4.59316406 7.03873047 -4.59316406 7.03873047 -5.8359375 7.26953125 C-8.35820641 7.87544942 -8.35820641 7.87544942 -10 11 C-12.125 11.6875 -12.125 11.6875 -14 12 C-13.03842826 8.44218458 -12.34112089 7.21983346 -9.1875 5.1875 C-6.15461027 4.05759991 -4.18921789 3.71859842 -1 4 C-0.67 2.68 -0.34 1.36 0 0 Z " fill="#73564D" transform="translate(89,128)"/>
<path d="M0 0 C1 3 1 3 0 9 C-4.29 9 -8.58 9 -13 9 C-12.67 8.34 -12.34 7.68 -12 7 C-9.7058459 6.68573231 -7.44226779 6.62075424 -5.12890625 6.5390625 C-2.83007555 6.215538 -2.83007555 6.215538 -1.77734375 4.0859375 C-1.52082031 3.39757812 -1.26429687 2.70921875 -1 2 C-0.67 1.34 -0.34 0.68 0 0 Z " fill="#F1E6DE" transform="translate(93,128)"/>
<path d="M0 0 C2.97 0.495 2.97 0.495 6 1 C6 2.32 6 3.64 6 5 C9.96 5 13.92 5 18 5 C18 5.33 18 5.66 18 6 C13.71 6 9.42 6 5 6 C4.67 5.01 4.34 4.02 4 3 C2.35 3.66 0.7 4.32 -1 5 C-0.67 3.35 -0.34 1.7 0 0 Z " fill="#843E35" transform="translate(44,53)"/>
<path d="M0 0 C1.32 0.33 2.64 0.66 4 1 C3.01 1 2.02 1 1 1 C1.01160156 1.69867188 1.02320313 2.39734375 1.03515625 3.1171875 C1.04869141 4.48230469 1.04869141 4.48230469 1.0625 5.875 C1.07410156 6.77992187 1.08570313 7.68484375 1.09765625 8.6171875 C1 11 1 11 0 13 C-0.22622081 14.70363822 -0.40888473 16.41328701 -0.5625 18.125 C-0.68818359 19.49011719 -0.68818359 19.49011719 -0.81640625 20.8828125 C-0.87699219 21.58148438 -0.93757812 22.28015625 -1 23 C-1.33 23 -1.66 23 -2 23 C-2.02685095 20.52076199 -2.04676547 18.0418116 -2.0625 15.5625 C-2.07506836 14.50192383 -2.07506836 14.50192383 -2.08789062 13.41992188 C-2.09653588 11.61306441 -2.05220011 9.80612397 -2 8 C-1.67 7.67 -1.34 7.34 -1 7 C-0.63239269 4.67182036 -0.29758419 2.3381615 0 0 Z " fill="#93796F" transform="translate(157,48)"/>
<path d="M0 0 C0.66 0.99 1.32 1.98 2 3 C2.99 3.66 3.98 4.32 5 5 C0.6835078 5.76173392 -2.74433453 6.16063604 -7 5 C-6.67 4.34 -6.34 3.68 -6 3 C-5.34 3 -4.68 3 -4 3 C-3.67 2.34 -3.34 1.68 -3 1 C-2.01 0.67 -1.02 0.34 0 0 Z " fill="#724F43" transform="translate(137,40)"/>
<path d="M0 0 C0.33 1.32 0.66 2.64 1 4 C-1.62198774 6.15377564 -3.64404172 7.40072174 -7 8 C-7.33 7.34 -7.66 6.68 -8 6 C-5.63379989 3.38472619 -3.057952 1.73559438 0 0 Z " fill="#DDC1A6" transform="translate(111,180)"/>
<path d="M0 0 C2 2 2 2 2.125 4.625 C2.08375 5.40875 2.0425 6.1925 2 7 C1.67 5.68 1.34 4.36 1 3 C0.01 3 -0.98 3 -2 3 C-2 7.29 -2 11.58 -2 16 C-2.33 16 -2.66 16 -3 16 C-3.33 11.05 -3.66 6.1 -4 1 C-2.68 0.67 -1.36 0.34 0 0 Z " fill="#684C41" transform="translate(91,113)"/>
<path d="M0 0 C0.66 0.33 1.32 0.66 2 1 C1.34 2.65 0.68 4.3 0 6 C1.65 6.33 3.3 6.66 5 7 C5.0825 7.61875 5.165 8.2375 5.25 8.875 C5.81258459 11.18437567 5.81258459 11.18437567 8.0625 12.25 C8.701875 12.4975 9.34125 12.745 10 13 C5.48279689 13.36625971 5.48279689 13.36625971 3.1875 11.625 C2 10 2 10 2 8 C1.01 7.67 0.02 7.34 -1 7 C-1.04254356 5.00045254 -1.04080783 2.99958364 -1 1 C-0.67 0.67 -0.34 0.34 0 0 Z " fill="#A73739" transform="translate(38,58)"/>
<path d="M0 0 C1.32 0 2.64 0 4 0 C4 1.98 4 3.96 4 6 C3.01 6.33 2.02 6.66 1 7 C-0.20882096 9.00016466 -0.20882096 9.00016466 -1 11 C-4.875 9.25 -4.875 9.25 -6 7 C-3.525 7.495 -3.525 7.495 -1 8 C-1 7.34 -1 6.68 -1 6 C-0.01 5.67 0.98 5.34 2 5 C2.73323796 2.98491642 2.73323796 2.98491642 3 1 C2.01 0.67 1.02 0.34 0 0 Z " fill="#A33738" transform="translate(142,122)"/>
<path d="M0 0 C0.99 0.495 0.99 0.495 2 1 C2 1.66 2 2.32 2 3 C5.73487777 2.5020163 7.81237635 2.12508244 11 0 C10.3125 2.4375 10.3125 2.4375 9 5 C5.71071522 6.1807689 4.34715311 6.1157177 1 5 C0.67 3.35 0.34 1.7 0 0 Z " fill="#AC3639" transform="translate(60,85)"/>
<path d="M0 0 C0.33 0 0.66 0 1 0 C1 5.94 1 11.88 1 18 C0.67 18 0.34 18 0 18 C-0.33 15.03 -0.66 12.06 -1 9 C-1.33 9 -1.66 9 -2 9 C-2.20140476 5.37471432 -1.85776765 3.13498292 0 0 Z " fill="#80655D" transform="translate(117,44)"/>
<path d="M0 0 C1.65 0 3.3 0 5 0 C5.33 1.65 5.66 3.3 6 5 C4.02 5 2.04 5 0 5 C0 3.35 0 1.7 0 0 Z " fill="#CDAD95" transform="translate(138,170)"/>
<path d="M0 0 C0.66 0 1.32 0 2 0 C0.55746343 3.36591866 -1.33264727 5.51047079 -4 8 C-4.99 7.67 -5.98 7.34 -7 7 C-4.66666667 4.66666667 -2.33333333 2.33333333 0 0 Z " fill="#EACDB0" transform="translate(141,158)"/>
<path d="M0 0 C0.33 0.99 0.66 1.98 1 3 C-0.65 4.65 -2.3 6.3 -4 8 C-4 4.87099787 -3.57548683 3.62581138 -2 1 C-1.34 0.67 -0.68 0.34 0 0 Z " fill="#E6C9AD" transform="translate(154,143)"/>
<path d="M0 0 C0.66 0.33 1.32 0.66 2 1 C-3.14285714 7.57142857 -3.14285714 7.57142857 -7 9 C-6.67 7.68 -6.34 6.36 -6 5 C-5.38125 4.9175 -4.7625 4.835 -4.125 4.75 C-1.81562433 4.18741541 -1.81562433 4.18741541 -0.75 1.9375 C-0.5025 1.298125 -0.255 0.65875 0 0 Z " fill="#A93739" transform="translate(129,155)"/>
<path d="M0 0 C2.475 0.495 2.475 0.495 5 1 C4.67 2.98 4.34 4.96 4 7 C2.68 6.67 1.36 6.34 0 6 C0.66 5.67 1.32 5.34 2 5 C2.33 4.01 2.66 3.02 3 2 C2.01 1.67 1.02 1.34 0 1 C0 0.67 0 0.34 0 0 Z " fill="#823E34" transform="translate(88,58)"/>
<path d="M0 0 C0.33 0 0.66 0 1 0 C1.04241723 2.33294775 1.04092937 4.66702567 1 7 C0 8 0 8 -2.5625 8.0625 C-3.366875 8.041875 -4.17125 8.02125 -5 8 C-5 7.34 -5 6.68 -5 6 C-3.68 6 -2.36 6 -1 6 C-0.67 4.02 -0.34 2.04 0 0 Z " fill="#A53839" transform="translate(93,59)"/>
<path d="M0 0 C0.66 0 1.32 0 2 0 C3.125 3.75 3.125 3.75 2 6 C1.01 5.67 0.02 5.34 -1 5 C-0.67 3.35 -0.34 1.7 0 0 Z " fill="#E4C6A9" transform="translate(25,17)"/>
<path d="M0 0 C0.33 0 0.66 0 1 0 C1 1.98 1 3.96 1 6 C-1.31 5.67 -3.62 5.34 -6 5 C-6 4.67 -6 4.34 -6 4 C-4.35 4 -2.7 4 -1 4 C-0.67 2.68 -0.34 1.36 0 0 Z " fill="#785C57" transform="translate(89,128)"/>
<path d="M0 0 C2.6875 -0.3125 2.6875 -0.3125 5 0 C3.68 0.33 2.36 0.66 1 1 C0.67 2.65 0.34 4.3 0 6 C-0.99 5.67 -1.98 5.34 -3 5 C-1.8125 2.5 -1.8125 2.5 0 0 Z " fill="#A5373A" transform="translate(43,52)"/>
<path d="M0 0 C0.66 0.33 1.32 0.66 2 1 C2 2.65 2 4.3 2 6 C1.01 6 0.02 6 -1 6 C-1.042721 4.33388095 -1.04063832 2.66617115 -1 1 C-0.67 0.67 -0.34 0.34 0 0 Z " fill="#E8D0B1" transform="translate(21,39)"/>
</svg>
